<?xml version="1.0" encoding="utf-8"?><svg version="1.1" id="Layer_1" xmlns="http://www.w3.org/2000/svg" xmlns:xlink="http://www.w3.org/1999/xlink" x="0px" y="0px" viewBox="0 0 104.79 122.88" style="enable-background:new 0 0 104.79 122.88" xml:space="preserve"><style type="text/css">.st0{fill-rule:evenodd;clip-rule:evenodd;}</style><g><path class="st0" d="M104.79,4.84L99.95,0l-3.43,3.43l-2.03-2.03c-0.19-0.19-0.51-0.19-0.7,0l-1.64,1.64 c-0.19,0.19-0.19,0.51,0,0.7l2.03,2.03l-2.86,2.86l-2.03-2.03c-0.19-0.19-0.51-0.19-0.7,0l-1.64,1.64c-0.19,0.19-0.19,0.51,0,0.7 l2.03,2.03L28.18,71.77L11.7,90l16.47,16.47l8.76-18.19c-0.03-0.53-0.07-1.05-0.12-1.56c0.2-0.02,0.4-0.1,0.56-0.26l5.51-5.51v0 c0.94-0.94,1.41-2.18,1.41-3.42c0-1.22-0.45-2.43-1.36-3.37l-0.05-0.05l-1.37-1.37l9.16-8.54C64.63,52.69,65.07,51.87,62.3,47.32 C76.41,33.22,90.68,18.95,104.79,4.84L104.79,4.84L104.79,4.84z M35.11,78.71c1.46,0.68,2.97,1,4.62,0.34 c-1.01,1.19-2.4,1.7-3.96,1.88c0.33,1.23,0.6,2.5,0.8,3.81l5.06-5.06l0,0c0.59-0.59,0.89-1.37,0.89-2.16 c0-0.77-0.28-1.53-0.85-2.12l-0.04-0.04l-1.38-1.38l-0.03-0.03L35.11,78.71L35.11,78.71z M10.42,91.42l-4.1,4.54L0,102.68 l20.27,20.2l7.03-14.59L10.42,91.42L10.42,91.42z"/></g></svg>